<mxfile host="app.diagrams.net" modified="2024-08-22T17:03:38.017Z" agent="Mozilla/5.0 (X11; Linux x86_64; rv:129.0) Gecko/20100101 Firefox/129.0" etag="wh6OfyCd_wxsJpSCZYII" version="24.5.5" type="device">
  <diagram name="Page-1" id="zPG_sFgSLfN40gptKtep">
    <mxGraphModel dx="1354" dy="587" grid="1" gridSize="10" guides="1" tooltips="1" connect="1" arrows="1" fold="1" page="1" pageScale="1" pageWidth="850" pageHeight="1100" math="0" shadow="0">
      <root>
        <mxCell id="0" />
        <mxCell id="1" parent="0" />
        <mxCell id="LS2Zu6u9GwRaP-HqJApa-1" value="&lt;p style=&quot;margin:0px;margin-top:4px;text-align:center;&quot;&gt;&lt;i&gt;&amp;lt;&amp;lt;Interface&amp;gt;&amp;gt;&lt;/i&gt;&lt;/p&gt;&lt;p style=&quot;margin:0px;margin-top:4px;text-align:center;&quot;&gt;&lt;b&gt;IServiceInterface&lt;/b&gt;&lt;br&gt;&lt;/p&gt;&lt;hr size=&quot;1&quot; style=&quot;border-style:solid;&quot;&gt;&lt;hr size=&quot;1&quot; style=&quot;border-style:solid;&quot;&gt;" style="verticalAlign=top;align=left;overflow=fill;html=1;whiteSpace=wrap;" vertex="1" parent="1">
          <mxGeometry x="200" y="200" width="190" height="40" as="geometry" />
        </mxCell>
        <mxCell id="LS2Zu6u9GwRaP-HqJApa-2" value="&lt;p style=&quot;margin:0px;margin-top:4px;text-align:center;&quot;&gt;&lt;i&gt;&amp;lt;&amp;lt;Interface&amp;gt;&amp;gt;&lt;/i&gt;&lt;/p&gt;&lt;p style=&quot;margin:0px;margin-top:4px;text-align:center;&quot;&gt;&lt;b&gt;IRepositoryInterface&lt;/b&gt;&lt;/p&gt;&lt;hr size=&quot;1&quot; style=&quot;border-style:solid;&quot;&gt;&lt;p style=&quot;margin:0px;margin-left:4px;&quot;&gt;&lt;br&gt;&lt;/p&gt;&lt;hr size=&quot;1&quot; style=&quot;border-style:solid;&quot;&gt;&lt;p style=&quot;margin:0px;margin-left:4px;&quot;&gt;&lt;br&gt;&lt;/p&gt;" style="verticalAlign=top;align=left;overflow=fill;html=1;whiteSpace=wrap;" vertex="1" parent="1">
          <mxGeometry x="500" y="200" width="190" height="40" as="geometry" />
        </mxCell>
        <mxCell id="LS2Zu6u9GwRaP-HqJApa-5" value="JpaRepositories" style="html=1;whiteSpace=wrap;" vertex="1" parent="1">
          <mxGeometry x="710" y="280" width="110" height="50" as="geometry" />
        </mxCell>
        <mxCell id="LS2Zu6u9GwRaP-HqJApa-6" value="Services" style="html=1;whiteSpace=wrap;" vertex="1" parent="1">
          <mxGeometry x="380" y="280" width="110" height="50" as="geometry" />
        </mxCell>
        <mxCell id="LS2Zu6u9GwRaP-HqJApa-7" value="Controllers" style="html=1;whiteSpace=wrap;" vertex="1" parent="1">
          <mxGeometry x="60" y="280" width="110" height="50" as="geometry" />
        </mxCell>
        <mxCell id="LS2Zu6u9GwRaP-HqJApa-8" value="Models" style="html=1;whiteSpace=wrap;" vertex="1" parent="1">
          <mxGeometry x="540" y="400" width="110" height="50" as="geometry" />
        </mxCell>
        <mxCell id="LS2Zu6u9GwRaP-HqJApa-9" value="DTOs" style="html=1;whiteSpace=wrap;" vertex="1" parent="1">
          <mxGeometry x="60" y="400" width="110" height="50" as="geometry" />
        </mxCell>
        <mxCell id="LS2Zu6u9GwRaP-HqJApa-10" value="" style="endArrow=open;endSize=12;dashed=1;html=1;rounded=0;" edge="1" parent="1" source="LS2Zu6u9GwRaP-HqJApa-6" target="LS2Zu6u9GwRaP-HqJApa-8">
          <mxGeometry width="160" relative="1" as="geometry">
            <mxPoint x="340" y="310" as="sourcePoint" />
            <mxPoint x="500" y="310" as="targetPoint" />
          </mxGeometry>
        </mxCell>
        <mxCell id="LS2Zu6u9GwRaP-HqJApa-11" value="" style="endArrow=open;endSize=12;dashed=1;html=1;rounded=0;" edge="1" parent="1" source="LS2Zu6u9GwRaP-HqJApa-2" target="LS2Zu6u9GwRaP-HqJApa-8">
          <mxGeometry width="160" relative="1" as="geometry">
            <mxPoint x="478" y="340" as="sourcePoint" />
            <mxPoint x="572" y="410" as="targetPoint" />
          </mxGeometry>
        </mxCell>
        <mxCell id="LS2Zu6u9GwRaP-HqJApa-13" value="" style="endArrow=block;dashed=1;endFill=0;endSize=12;html=1;rounded=0;" edge="1" parent="1" source="LS2Zu6u9GwRaP-HqJApa-5" target="LS2Zu6u9GwRaP-HqJApa-2">
          <mxGeometry width="160" relative="1" as="geometry">
            <mxPoint x="340" y="310" as="sourcePoint" />
            <mxPoint x="500" y="310" as="targetPoint" />
          </mxGeometry>
        </mxCell>
        <mxCell id="LS2Zu6u9GwRaP-HqJApa-14" value="" style="endArrow=open;endSize=12;dashed=1;html=1;rounded=0;" edge="1" parent="1" source="LS2Zu6u9GwRaP-HqJApa-6" target="LS2Zu6u9GwRaP-HqJApa-2">
          <mxGeometry width="160" relative="1" as="geometry">
            <mxPoint x="478" y="340" as="sourcePoint" />
            <mxPoint x="572" y="410" as="targetPoint" />
          </mxGeometry>
        </mxCell>
        <mxCell id="LS2Zu6u9GwRaP-HqJApa-15" value="" style="endArrow=block;dashed=1;endFill=0;endSize=12;html=1;rounded=0;" edge="1" parent="1" source="LS2Zu6u9GwRaP-HqJApa-6" target="LS2Zu6u9GwRaP-HqJApa-1">
          <mxGeometry width="160" relative="1" as="geometry">
            <mxPoint x="380" y="430" as="sourcePoint" />
            <mxPoint x="300" y="390" as="targetPoint" />
          </mxGeometry>
        </mxCell>
        <mxCell id="LS2Zu6u9GwRaP-HqJApa-16" value="" style="endArrow=open;endSize=12;dashed=1;html=1;rounded=0;" edge="1" parent="1" source="LS2Zu6u9GwRaP-HqJApa-7" target="LS2Zu6u9GwRaP-HqJApa-1">
          <mxGeometry width="160" relative="1" as="geometry">
            <mxPoint x="290" y="350" as="sourcePoint" />
            <mxPoint x="384" y="420" as="targetPoint" />
          </mxGeometry>
        </mxCell>
        <mxCell id="LS2Zu6u9GwRaP-HqJApa-17" value="" style="endArrow=open;endSize=12;dashed=1;html=1;rounded=0;" edge="1" parent="1" source="LS2Zu6u9GwRaP-HqJApa-7" target="LS2Zu6u9GwRaP-HqJApa-9">
          <mxGeometry width="160" relative="1" as="geometry">
            <mxPoint x="230" y="380" as="sourcePoint" />
            <mxPoint x="315" y="340" as="targetPoint" />
          </mxGeometry>
        </mxCell>
      </root>
    </mxGraphModel>
  </diagram>
</mxfile>
